<svg version="1.1" xmlns="http://www.w3.org/2000/svg" xmlns:xlink="http://www.w3.org/1999/xlink" width="38.17533" height="36.66694" viewBox="0,0,38.17533,36.66694"><defs><radialGradient cx="240" cy="180" r="19.08766" gradientUnits="userSpaceOnUse" id="color-1"><stop offset="0" stop-color="#a5b300"/><stop offset="1" stop-color="#ebff00"/></radialGradient></defs><g transform="translate(-220.91234,-161.66653)"><g fill="url(#color-1)" stroke="none" stroke-width="2.57572" stroke-miterlimit="10"><path d="M252.15339,197.626c-2.65561,1.99905 -11.8715,-5.97012 -11.8715,-5.97012c0,0 -8.91971,8.29753 -11.63921,6.39379c-2.71933,-1.90376 2.0072,-13.12536 2.0072,-13.12536c0,0 -10.64114,-5.92777 -9.67559,-9.0986c0.9697,-3.17592 13.10271,-2.14508 13.10271,-2.14508c0,0 2.34187,-11.95639 5.66572,-12.01386c3.3191,-0.06166 6.08505,11.80034 6.08505,11.80034c0,0 12.09849,-1.46657 13.17987,1.67154c1.09092,3.14162 -9.33219,9.44112 -9.33219,9.44112c0,0 5.12482,11.04808 2.47794,13.04623z"/></g></g></svg>