<svg version="1.1" xmlns="http://www.w3.org/2000/svg" xmlns:xlink="http://www.w3.org/1999/xlink" width="644.5217" height="431.55036" viewBox="0,0,644.5217,431.55036"><defs><linearGradient x1="229.875" y1="-32.1875" x2="229.875" y2="6.8125" gradientUnits="userSpaceOnUse" id="color-1"><stop offset="0" stop-color="#757575"/><stop offset="1" stop-color="#484848"/></linearGradient><linearGradient x1="560.875" y1="183.3125" x2="315.875" y2="183.3125" gradientUnits="userSpaceOnUse" id="color-2"><stop offset="0" stop-color="#757575"/><stop offset="1" stop-color="#484848"/></linearGradient><linearGradient x1="236.375" y1="196.8125" x2="236.375" y2="389.8125" gradientUnits="userSpaceOnUse" id="color-3"><stop offset="0" stop-color="#413f9d"/><stop offset="1" stop-color="#9764fc"/></linearGradient><linearGradient x1="-81.125" y1="183.3125" x2="163.875" y2="183.3125" gradientUnits="userSpaceOnUse" id="color-4"><stop offset="0" stop-color="#757575"/><stop offset="1" stop-color="#484848"/></linearGradient><radialGradient cx="240.375" cy="120.8125" r="83.71233" gradientUnits="userSpaceOnUse" id="color-5"><stop offset="0" stop-color="#7b7b7b"/><stop offset="1" stop-color="#464646"/></radialGradient></defs><g transform="translate(82.38585,33.43746)"><g data-paper-data="{&quot;isPaintingLayer&quot;:true}" fill-rule="nonzero" stroke="#000000" stroke-linejoin="miter" stroke-miterlimit="10" stroke-dasharray="" stroke-dashoffset="0" style="mix-blend-mode: normal"><path d="M536.875,-27.1875l-220,33l-151,1l-243,-39z" fill="url(#color-1)" stroke-width="2.5" stroke-linecap="round"/><path d="M315.875,6.8125l241,-37l4,422l-54,5l-191,-200z" data-paper-data="{&quot;index&quot;:null}" fill="url(#color-2)" stroke-width="2.5" stroke-linecap="round"/><path d="M315.875,197.8125l176,185l-511,7l183,-193z" fill="url(#color-3)" stroke-width="2.5" stroke-linecap="round"/><path d="M163.875,196.8125l-191,200l-54,-5l4,-422l241,37z" fill="url(#color-4)" stroke-width="2.5" stroke-linecap="round"/><path d="M-60.5,365v-369.5h598v369.5z" fill="none" stroke-width="5" stroke-linecap="butt"/><path d="M164.5,197.5v-191h151v191z" fill="#484848" stroke-width="2.5" stroke-linecap="butt"/><path d="M191.875,195.8125v-150h97v150z" fill="url(#color-5)" stroke-width="2.5" stroke-linecap="butt"/></g></g></svg>