<svg version="1.1" xmlns="http://www.w3.org/2000/svg" xmlns:xlink="http://www.w3.org/1999/xlink" width="189.93061" height="192.41997" viewBox="0,0,189.93061,192.41997"><g transform="translate(-129.4178,-83.7467)"><g stroke-miterlimit="10"><path d="M275.36669,120.93334l5,51l-114,5l-3,-59z" fill="none" stroke="#000000" stroke-width="5" stroke-linecap="round"/><path d="M190.30002,116.66667l-0.66666,-30.33333l50,1.66667l3.33333,30" fill="none" stroke="#000000" stroke-width="5" stroke-linecap="round"/><path d="M277.63335,126.66667l36,-0.66667l3,35l-36.33334,1.33334" fill="none" stroke="#000000" stroke-width="5" stroke-linecap="round"/><path d="M309.63334,162l4,81l2.66667,27.66667h-43.33333l0.66667,-27.66667l21.66667,-1l-3,-79.66666" fill="none" stroke="#000000" stroke-width="5" stroke-linecap="round"/><path d="M171.63335,176.66667l2,69l39.33333,-0.66666l1,26.33334l-44,-0.66667l2.66667,-23.66666" fill="none" stroke="#000000" stroke-width="5" stroke-linecap="round"/><path d="M194.63335,176.66667l-0.66667,69" fill="none" stroke="#000000" stroke-width="5" stroke-linecap="round"/><path d="M212.96668,245.66668l-1,-16.66667l61.33333,1l-0.33333,43.33333l-60.33333,0.33333" fill="none" stroke="#000000" stroke-width="5" stroke-linecap="round"/><text transform="translate(218.63335,259.66668) scale(0.5,0.5)" font-size="40" xml:space="preserve" fill="#000000" stroke="none" stroke-width="1" stroke-linecap="butt" font-family="Sans Serif" font-weight="normal" text-anchor="start"><tspan x="0" dy="0">YOU</tspan></text><path d="M238.80002,266.95c0,-1.38071 1.11929,-2.5 2.5,-2.5c1.38071,0 2.5,1.11929 2.5,2.5c0,1.38071 -1.11929,2.5 -2.5,2.5c-1.38071,0 -2.5,-1.11929 -2.5,-2.5z" fill="#000000" stroke="none" stroke-width="0.5" stroke-linecap="butt"/><path d="M312.30001,240.95l-18,-0.5" fill="none" stroke="#000000" stroke-width="5" stroke-linecap="round"/><path d="M213.99152,105.25033c0,-1.38071 1.11929,-2.5 2.5,-2.5c1.38071,0 2.5,1.11929 2.5,2.5c0,1.38071 -1.11929,2.5 -2.5,2.5c-1.38071,0 -2.5,-1.11929 -2.5,-2.5z" fill="#ff0000" stroke="none" stroke-width="0.5" stroke-linecap="butt"/><path d="M228.68433,146.87996c0,-1.38071 1.11929,-2.5 2.5,-2.5c1.38071,0 2.5,1.11929 2.5,2.5c0,1.38071 -1.11929,2.5 -2.5,2.5c-1.38071,0 -2.5,-1.11929 -2.5,-2.5z" fill="#ff0000" stroke="none" stroke-width="0.5" stroke-linecap="butt"/><path d="M296.63858,144.43115c0,-1.38071 1.11929,-2.5 2.5,-2.5c1.38071,0 2.5,1.11929 2.5,2.5c0,1.38071 -1.11929,2.5 -2.5,2.5c-1.38071,0 -2.5,-1.11929 -2.5,-2.5z" fill="#ff0000" stroke="none" stroke-width="0.5" stroke-linecap="butt"/><path d="M300.31178,205.6512c0,-1.38071 1.11929,-2.5 2.5,-2.5c1.38071,0 2.5,1.11929 2.5,2.5c0,1.38071 -1.11929,2.5 -2.5,2.5c-1.38071,0 -2.5,-1.11929 -2.5,-2.5z" fill="#ff0000" stroke="none" stroke-width="0.5" stroke-linecap="butt"/><path d="M299.69958,261.36143c0,-1.38071 1.11929,-2.5 2.5,-2.5c1.38071,0 2.5,1.11929 2.5,2.5c0,1.38071 -1.11929,2.5 -2.5,2.5c-1.38071,0 -2.5,-1.11929 -2.5,-2.5z" fill="#ff0000" stroke="none" stroke-width="0.5" stroke-linecap="butt"/><path d="M254.39675,266.25904c0,-1.38071 1.11929,-2.5 2.5,-2.5c1.38071,0 2.5,1.11929 2.5,2.5c0,1.38071 -1.11929,2.5 -2.5,2.5c-1.38071,0 -2.5,-1.11929 -2.5,-2.5z" fill="#ff0000" stroke="none" stroke-width="0.5" stroke-linecap="butt"/><path d="M228.68433,107.69913c0,-1.38071 1.11929,-2.5 2.5,-2.5c1.38071,0 2.5,1.11929 2.5,2.5c0,1.38071 -1.11929,2.5 -2.5,2.5c-1.38071,0 -2.5,-1.11929 -2.5,-2.5z" fill="#00ff08" stroke="none" stroke-width="0.5" stroke-linecap="butt"/><path d="M243.37714,153.00196c0,-1.38071 1.11929,-2.5 2.5,-2.5c1.38071,0 2.5,1.11929 2.5,2.5c0,1.38071 -1.11929,2.5 -2.5,2.5c-1.38071,0 -2.5,-1.11929 -2.5,-2.5z" fill="#00ff08" stroke="none" stroke-width="0.5" stroke-linecap="butt"/><path d="M299.69958,191.57059c0,-1.38071 1.11929,-2.5 2.5,-2.5c1.38071,0 2.5,1.11929 2.5,2.5c0,1.38071 -1.11929,2.5 -2.5,2.5c-1.38071,0 -2.5,-1.11929 -2.5,-2.5z" fill="#00ff08" stroke="none" stroke-width="0.5" stroke-linecap="butt"/><path d="M302.76059,252.17843c0,-1.38071 1.11929,-2.5 2.5,-2.5c1.38071,0 2.5,1.11929 2.5,2.5c0,1.38071 -1.11929,2.5 -2.5,2.5c-1.38071,0 -2.5,-1.11929 -2.5,-2.5z" fill="#00ff08" stroke="none" stroke-width="0.5" stroke-linecap="butt"/><path d="M262.96756,261.97364c0,-1.38071 1.11929,-2.5 2.5,-2.5c1.38071,0 2.5,1.11929 2.5,2.5c0,1.38071 -1.11929,2.5 -2.5,2.5c-1.38071,0 -2.5,-1.11929 -2.5,-2.5z" fill="#00ff08" stroke="none" stroke-width="0.5" stroke-linecap="butt"/><path d="M200.52311,107.69913c0,-1.38071 1.11929,-2.5 2.5,-2.5c1.38071,0 2.5,1.11929 2.5,2.5c0,1.38071 -1.11929,2.5 -2.5,2.5c-1.38071,0 -2.5,-1.11929 -2.5,-2.5z" fill="#1d00ff" stroke="none" stroke-width="0.5" stroke-linecap="butt"/><path d="M210.31832,153.61416c0,-1.38071 1.11929,-2.5 2.5,-2.5c1.38071,0 2.5,1.11929 2.5,2.5c0,1.38071 -1.11929,2.5 -2.5,2.5c-1.38071,0 -2.5,-1.11929 -2.5,-2.5z" fill="#1d00ff" stroke="none" stroke-width="0.5" stroke-linecap="butt"/><path d="M177.2595,212.9976c0,-1.38071 1.11929,-2.5 2.5,-2.5c1.38071,0 2.5,1.11929 2.5,2.5c0,1.38071 -1.11929,2.5 -2.5,2.5c-1.38071,0 -2.5,-1.11929 -2.5,-2.5z" fill="#1d00ff" stroke="none" stroke-width="0.5" stroke-linecap="butt"/><path d="M185.2181,259.52484c0,-1.38071 1.11929,-2.5 2.5,-2.5c1.38071,0 2.5,1.11929 2.5,2.5c0,1.38071 -1.11929,2.5 -2.5,2.5c-1.38071,0 -2.5,-1.11929 -2.5,-2.5z" fill="#1d00ff" stroke="none" stroke-width="0.5" stroke-linecap="butt"/><path d="M224.39893,267.48344c0,-1.38071 1.11929,-2.5 2.5,-2.5c1.38071,0 2.5,1.11929 2.5,2.5c0,1.38071 -1.11929,2.5 -2.5,2.5c-1.38071,0 -2.5,-1.11929 -2.5,-2.5z" fill="#1d00ff" stroke="none" stroke-width="0.5" stroke-linecap="butt"/><path d="M150.32268,150.55316c0,-1.38071 1.11929,-2.5 2.5,-2.5c1.38071,0 2.5,1.11929 2.5,2.5c0,1.38071 -1.11929,2.5 -2.5,2.5c-1.38071,0 -2.5,-1.11929 -2.5,-2.5z" fill="#ffdf00" stroke="none" stroke-width="0.5" stroke-linecap="butt"/><path d="M182.1571,195.85599c0,-1.38071 1.11929,-2.5 2.5,-2.5c1.38071,0 2.5,1.11929 2.5,2.5c0,1.38071 -1.11929,2.5 -2.5,2.5c-1.38071,0 -2.5,-1.11929 -2.5,-2.5z" fill="#ffdf00" stroke="none" stroke-width="0.5" stroke-linecap="butt"/><path d="M162.61788,164.34074l-29.38562,3.6732l-1.2244,-30.61002l29.99782,-3.6732" fill="none" stroke="#000000" stroke-width="5" stroke-linecap="round"/></g></g></svg>