<svg version="1.1" xmlns="http://www.w3.org/2000/svg" xmlns:xlink="http://www.w3.org/1999/xlink" width="189.93061" height="192.41997" viewBox="0,0,189.93061,192.41997"><g transform="translate(-129.4178,-83.74671)"><g stroke-miterlimit="10"><path d="M275.36669,120.93334l5,51l-114,5l-3,-59z" fill="none" stroke="#000000" stroke-width="5" stroke-linecap="round"/><path d="M190.30002,116.66667l-0.66666,-30.33333l50,1.66667l3.33333,30" fill="none" stroke="#000000" stroke-width="5" stroke-linecap="round"/><path d="M277.63335,126.66667l36,-0.66667l3,35l-36.33334,1.33334" fill="none" stroke="#000000" stroke-width="5" stroke-linecap="round"/><path d="M309.63334,162l4,81l2.66667,27.66667h-43.33333l0.66667,-27.66667l21.66667,-1l-3,-79.66666" fill="none" stroke="#000000" stroke-width="5" stroke-linecap="round"/><path d="M171.63335,176.66667l2,69l39.33333,-0.66666l1,26.33334l-44,-0.66667l2.66667,-23.66666" fill="none" stroke="#000000" stroke-width="5" stroke-linecap="round"/><path d="M194.63335,176.66667l-0.66667,69" fill="none" stroke="#000000" stroke-width="5" stroke-linecap="round"/><path d="M212.96668,245.66668l-1,-16.66667l61.33333,1l-0.33333,43.33333l-60.33333,0.33333" fill="none" stroke="#000000" stroke-width="5" stroke-linecap="round"/><text transform="translate(218.63335,259.66668) scale(0.5,0.5)" font-size="40" xml:space="preserve" fill="#000000" stroke="none" stroke-width="1" stroke-linecap="butt" font-family="Sans Serif" font-weight="normal" text-anchor="start"><tspan x="0" dy="0">YOU</tspan></text><path d="M238.80002,266.95c0,-1.38071 1.11929,-2.5 2.5,-2.5c1.38071,0 2.5,1.11929 2.5,2.5c0,1.38071 -1.11929,2.5 -2.5,2.5c-1.38071,0 -2.5,-1.11929 -2.5,-2.5z" fill="#000000" stroke="none" stroke-width="0.5" stroke-linecap="butt"/><path d="M294.30001,240.45l18,0.5" fill="none" stroke="#000000" stroke-width="5" stroke-linecap="round"/><path d="M162.00569,133.73072l-29.99783,3.6732l1.22441,30.61003l29.38562,-3.6732" fill="none" stroke="#000000" stroke-width="5" stroke-linecap="round"/></g></g></svg>